<svg xmlns="http://www.w3.org/2000/svg" width="84.225" height="81.846" viewBox="0 0 84.225 81.846">
  <g id="toy-teddy_bear-pediatrics" data-name="toy-teddy bear-pediatrics" transform="translate(-519 -116)">
    <path id="Path_1228" data-name="Path 1228" d="M536.138,153A21.211,21.211,0,0,0,535,159.72c0,10.937,7.073,19.8,21.219,19.8s21.219-8.867,21.219-19.8A21.211,21.211,0,0,0,576.3,153" transform="translate(4.893 11.743)" fill="none" stroke="#003c74" stroke-linecap="round" stroke-linejoin="round" stroke-width="2"/>
    <g id="Group_3233" data-name="Group 3233" transform="translate(533.262 117)">
      <path id="Path_1229" data-name="Path 1229" d="M541.415,121.979a22.3,22.3,0,0,1,25.423,0" transform="translate(-526.276 -116.674)" fill="none" stroke="#003c74" stroke-linecap="round" stroke-linejoin="round" stroke-width="2"/>
      <path id="Path_1230" data-name="Path 1230" d="M549.261,147.912C541.536,145.544,536,139.159,536,131.652a15.126,15.126,0,0,1,.233-2.652" transform="translate(-528.043 -113.086)" fill="none" stroke="#003c74" stroke-linecap="round" stroke-linejoin="round" stroke-width="2"/>
      <path id="Path_1231" data-name="Path 1231" d="M569.027,129a15,15,0,0,1,.235,2.652c0,7.506-5.536,13.893-13.262,16.259" transform="translate(-521.519 -113.086)" fill="none" stroke="#003c74" stroke-linecap="round" stroke-linejoin="round" stroke-width="2"/>
      <ellipse id="Ellipse_9" data-name="Ellipse 9" cx="7.957" cy="6.631" rx="7.957" ry="6.631" transform="translate(19.893 17.241)" fill="none" stroke="#003c74" stroke-linejoin="round" stroke-width="2"/>
      <ellipse id="Ellipse_10" data-name="Ellipse 10" cx="2.652" cy="1.989" rx="2.652" ry="1.989" transform="translate(25.198 21.219)" fill="#464646" stroke="#003c74" stroke-width="1"/>
      <ellipse id="Ellipse_11" data-name="Ellipse 11" cx="1.989" cy="2.652" rx="1.989" ry="2.652" transform="translate(17.241 13.262)" fill="#464646" stroke="#003c74" stroke-width="1"/>
      <ellipse id="Ellipse_12" data-name="Ellipse 12" cx="1.989" cy="2.652" rx="1.989" ry="2.652" transform="translate(34.481 13.262)" fill="#464646" stroke="#003c74" stroke-width="1"/>
      <g id="Group_3232" data-name="Group 3232">
        <path id="Path_1232" data-name="Path 1232" d="M546.237,121.589a8.617,8.617,0,1,0-8.2,12.623" transform="translate(-530 -117)" fill="none" stroke="#003c74" stroke-linejoin="round" stroke-width="2"/>
        <path id="Path_1233" data-name="Path 1233" d="M559.756,121.589a8.618,8.618,0,1,1,8.2,12.623" transform="translate(-520.294 -117)" fill="none" stroke="#003c74" stroke-linejoin="round" stroke-width="2"/>
      </g>
    </g>
    <g id="Group_3236" data-name="Group 3236" transform="translate(520 172.701)">
      <g id="Group_3234" data-name="Group 3234">
        <path id="Path_1234" data-name="Path 1234" d="M553.155,177.567l-13.9,4.634a17.273,17.273,0,0,1-4.13.834l-.845.065A13.263,13.263,0,0,1,520,169.876v-4.245A6.632,6.632,0,0,1,526.631,159h0a7.361,7.361,0,0,1,6.983,5.033l2.3,6.9" transform="translate(-520 -159)" fill="none" stroke="#003c74" stroke-linecap="round" stroke-linejoin="round" stroke-width="2"/>
        <line id="Line_5" data-name="Line 5" x1="5.305" y2="1.326" transform="translate(14.588 4.807)" fill="none" stroke="#003c74" stroke-linejoin="round" stroke-width="2"/>
      </g>
      <g id="Group_3235" data-name="Group 3235" transform="translate(49.07)">
        <path id="Path_1235" data-name="Path 1235" d="M557,177.567l13.9,4.634a17.273,17.273,0,0,0,4.13.834l.845.065a13.263,13.263,0,0,0,14.279-13.224v-4.245A6.632,6.632,0,0,0,583.524,159h0a7.36,7.36,0,0,0-6.982,5.033l-2.3,6.9" transform="translate(-557 -159)" fill="none" stroke="#003c74" stroke-linecap="round" stroke-linejoin="round" stroke-width="2"/>
        <line id="Line_6" data-name="Line 6" x2="5.305" y2="1.326" transform="translate(13.262 4.807)" fill="none" stroke="#003c74" stroke-linejoin="round" stroke-width="2"/>
      </g>
    </g>
    <g id="Group_3237" data-name="Group 3237" transform="translate(572.238 151.557)">
      <path id="Path_1236" data-name="Path 1236" d="M559.389,143.057l19.877,1.143a6.758,6.758,0,0,1-1.255,13.457L570,156.911" transform="translate(-559.389 -143.057)" fill="none" stroke="#003c74" stroke-linecap="round" stroke-linejoin="round" stroke-width="2"/>
    </g>
    <g id="Group_3238" data-name="Group 3238" transform="translate(524.494 151.557)">
      <path id="Path_1237" data-name="Path 1237" d="M549.4,143.057,529.52,144.2a6.758,6.758,0,1,0,1.255,13.457l8.013-.747" transform="translate(-523.389 -143.057)" fill="none" stroke="#003c74" stroke-linecap="round" stroke-linejoin="round" stroke-width="2"/>
    </g>
    <g id="Group_3241" data-name="Group 3241" transform="translate(547.909 151.481)">
      <g id="Group_3239" data-name="Group 3239" transform="translate(0 0.011)">
        <path id="Path_1238" data-name="Path 1238" d="M543.411,143.008c-3.128,5.846.313,12.747.313,12.747" transform="translate(-540.7 -143.008)" fill="none" stroke="#003c74" stroke-linecap="round" stroke-linejoin="round" stroke-width="2"/>
        <path id="Path_1239" data-name="Path 1239" d="M552.922,163.857l3.192-1.248L554.435,159c-2.464-5.29-6.76-7.937-10.367-6.258h0c-3.607,1.68-3.871,6.362-1.408,11.651L544.34,168l3.277-1.492" transform="translate(-541.044 -139.996)" fill="none" stroke="#003c74" stroke-linecap="round" stroke-linejoin="round" stroke-width="2"/>
      </g>
      <g id="Group_3240" data-name="Group 3240" transform="translate(17.182)">
        <path id="Path_1240" data-name="Path 1240" d="M559,143c1.326,2.652,0,6.631,0,6.631" transform="translate(-552.369 -143)" fill="none" stroke="#003c74" stroke-linecap="round" stroke-linejoin="round" stroke-width="2"/>
        <circle id="Ellipse_13" data-name="Ellipse 13" cx="5.305" cy="5.305" r="5.305" transform="translate(0 6.631)" fill="none" stroke="#003c74" stroke-linecap="round" stroke-linejoin="round" stroke-width="2"/>
      </g>
    </g>
  </g>
</svg>
