<svg xmlns="http://www.w3.org/2000/svg" width="117.542" height="90.541" viewBox="0 0 117.542 90.541">
  <g id="Group_3230" data-name="Group 3230" transform="translate(-1050.432 -273.327)">
    <g id="Group_3227" data-name="Group 3227">
      <g id="Group_3226" data-name="Group 3226">
        <path id="Path_1217" data-name="Path 1217" d="M1150.9,289.853a1.3,1.3,0,0,1,1.237,1.237c.131,2.465-.057,8.427-4.322,12.693-5.5,5.5-13.829,4.22-13.829,4.22s-1.282-8.325,4.221-13.828C1142.475,289.909,1148.438,289.721,1150.9,289.853Z" fill="#fff" stroke="#003c74" stroke-width="2.447"/>
        <g id="Group_3224" data-name="Group 3224">
          <path id="Path_1218" data-name="Path 1218" d="M1133.86,308.15a15.965,15.965,0,0,0-10.313-12.527" fill="none" stroke="#003c74" stroke-linecap="round" stroke-width="2.447"/>
        </g>
        <path id="Path_1219" data-name="Path 1219" d="M1135.939,308.4a30.012,30.012,0,0,0,7.1-1.153,20.236,20.236,0,0,1,14.7,2.112c5.662,3.315,8.462,10,8.934,16.323a38.473,38.473,0,0,1-3.555,18.053,43.346,43.346,0,0,1-10.66,15.145c-1.994,1.756-4.474,3.544-7.215,3.748a9.751,9.751,0,0,1-4.483-.926,9.3,9.3,0,0,0-9.629,0,9.749,9.749,0,0,1-4.482.926c-2.742-.2-5.222-1.992-7.215-3.748a43.336,43.336,0,0,1-10.661-15.145,38.5,38.5,0,0,1-3.555-18.053c.472-6.324,3.272-13.008,8.935-16.323a20.233,20.233,0,0,1,14.7-2.112,30.012,30.012,0,0,0,7.1,1.153" fill="#fff" stroke="#003c74" stroke-width="2.447"/>
        <g id="Group_3225" data-name="Group 3225">
          <path id="Path_1220" data-name="Path 1220" d="M1160.583,333.222c1.23-4.987-.066-12.2-2.89-16.07" fill="none" stroke="#003c74" stroke-linecap="round" stroke-width="2.447"/>
        </g>
      </g>
      <path id="Path_1221" data-name="Path 1221" d="M1151.855,290.345A137.208,137.208,0,0,1,1133.989,308" fill="none" stroke="#003c74" stroke-width="2.447"/>
    </g>
    <g id="Group_3229" data-name="Group 3229">
      <g id="Group_3228" data-name="Group 3228">
        <path id="Path_1222" data-name="Path 1222" d="M1113.037,284.623l-7.906,2.442c-.162,28.247-12.392,41.727-12.392,41.727-14.435,16.379-30.227,22.592-39.089,24.909a2.69,2.69,0,0,0-.36,5.087c26.193,11.212,50.859-8.644,50.859-8.644C1135.29,324.49,1113.037,284.623,1113.037,284.623Z" fill="#fff" stroke="#003c74" stroke-miterlimit="10" stroke-width="2.4"/>
        <path id="Path_1223" data-name="Path 1223" d="M1109.337,285.906c2.425,8.533,16.919,68.884-57.694,70.438" fill="none" stroke="#003c74" stroke-miterlimit="10" stroke-width="2.4"/>
      </g>
      <path id="Path_1224" data-name="Path 1224" d="M1105.131,287.065l-1.865-7.339a4.152,4.152,0,0,1,2.985-5.055h0a4.152,4.152,0,0,1,5.054,2.984l1.9,7.285A13.731,13.731,0,0,1,1105.131,287.065Z" fill="#fff" stroke="#003c74" stroke-miterlimit="10" stroke-width="2.4"/>
    </g>
  </g>
</svg>
