<svg xmlns="http://www.w3.org/2000/svg" width="104.041" height="76.096" viewBox="0 0 104.041 76.096">
  <g id="Group_3231" data-name="Group 3231" transform="translate(-1344.25 -23.979)">
    <ellipse id="Ellipse_7" data-name="Ellipse 7" cx="13.97" cy="28.238" rx="13.97" ry="28.238" transform="translate(1345.947 58.443) rotate(-45)" fill="none" stroke="#003c74" stroke-linecap="round" stroke-miterlimit="10" stroke-width="2.4"/>
    <path id="Path_1225" data-name="Path 1225" d="M1384.052,40.383a32.3,32.3,0,0,0-13.927-6.613,32.243,32.243,0,0,0-3.83,14.715" fill="none" stroke="#003c74" stroke-linecap="round" stroke-miterlimit="10" stroke-width="2.4"/>
    <path id="Path_1226" data-name="Path 1226" d="M1408.228,39.794A32.006,32.006,0,0,1,1421.4,33.77a32.281,32.281,0,0,1,3.834,14.887" fill="none" stroke="#003c74" stroke-linecap="round" stroke-miterlimit="10" stroke-width="2.4"/>
    <ellipse id="Ellipse_8" data-name="Ellipse 8" cx="28.238" cy="13.97" rx="28.238" ry="13.97" transform="matrix(0.707, -0.707, 0.707, 0.707, 1386.902, 78.621)" fill="none" stroke="#003c74" stroke-linecap="round" stroke-miterlimit="10" stroke-width="2.4"/>
    <path id="Path_1227" data-name="Path 1227" d="M1380.627,54.515c.777-12.449,6.879-23.156,15.644-29.087,8.768,5.934,14.871,16.646,15.644,29.1" fill="none" stroke="#003c74" stroke-linecap="round" stroke-miterlimit="10" stroke-width="2.4"/>
  </g>
</svg>
